# xmcd CD database file
#
# Track frame offsets:
#	150
#	13317
#	30962
#	63026
#	74939
#	86565
#	102906
#	125815
#
# Disc length: 1920 seconds
#
# Revision: 0
# Processed by: cddbd v1.5.2PL0 Copyright (c) Steve Scherf et al.
# Submitted via: CDex 1.70beta3
#
DISCID=6c077e08
DTITLE=Duke Ellington - Billy Strayhorn Live
DYEAR=1959
DGENRE=Jazz
TTITLE0=Things Ain't What They Used To Be
TTITLE1=Jeeps Blues
TTITLE2=Mr. Gentle and Mr. Cool
TTITLE3=In A Mellow Tone
TTITLE4=All Of Me
TTITLE5=Sophisticated Lady
TTITLE6=Passion Flower
TTITLE7=On The Summy Side Of The Street
EXTD=YEAR: 1959
EXTT0=
EXTT1=
EXTT2=
EXTT3=
EXTT4=
EXTT5=
EXTT6=
EXTT7=
PLAYORDER=
